<svg width="24" height="24" viewBox="0 0 24 24" fill="none" xmlns="http://www.w3.org/2000/svg">
  <path d="M19.5 12C19.5 11.17 18.83 10.5 18 10.5C17.17 10.5 16.5 11.17 16.5 12C16.5 12.83 17.17 13.5 18 13.5C18.83 13.5 19.5 12.83 19.5 12Z" fill="currentColor"/>
  <path d="M17.5 3.5C17.5 2.95 17.05 2.5 16.5 2.5C15.95 2.5 15.5 2.95 15.5 3.5C15.5 4.05 15.95 4.5 16.5 4.5C17.05 4.5 17.5 4.05 17.5 3.5Z" fill="currentColor"/>
  <path d="M14.5 7C14.5 6.17 13.83 5.5 13 5.5C12.17 5.5 11.5 6.17 11.5 7C11.5 7.83 12.17 8.5 13 8.5C13.83 8.5 14.5 7.83 14.5 7Z" fill="currentColor"/>
  <path d="M10.5 3.5C10.5 2.67 9.83 2 9 2C8.17 2 7.5 2.67 7.5 3.5C7.5 4.33 8.17 5 9 5C9.83 5 10.5 4.33 10.5 3.5Z" fill="currentColor"/>
  <path d="M7.5 12C7.5 11.17 6.83 10.5 6 10.5C5.17 10.5 4.5 11.17 4.5 12C4.5 12.83 5.17 13.5 6 13.5C6.83 13.5 7.5 12.83 7.5 12Z" fill="currentColor"/>
  <path d="M22 21H2V7.95C2.02 7.6 2 7.5 2 7C2 6.17 2.67 5.5 3.5 5.5C4.33 5.5 5 6.17 5 7C5 6.17 5.67 5.5 6.5 5.5C7.33 5.5 8 6.17 8 7C8 6.17 8.67 5.5 9.5 5.5C10.33 5.5 11 6.17 11 7C11 6.17 11.67 5.5 12.5 5.5C13.33 5.5 14 6.17 14 7C14 6.17 14.67 5.5 15.5 5.5C16.33 5.5 17 6.17 17 7C17 6.17 17.67 5.5 18.5 5.5C19.33 5.5 20 6.17 20 7C20 7.5 20.02 7.6 20 8V21H22Z" fill="currentColor"/>
</svg> 