<svg width="24" height="24" viewBox="0 0 24 24" fill="none" xmlns="http://www.w3.org/2000/svg">
  <path d="M12 2C6.48 2 2 6.48 2 12C2 17.52 6.48 22 12 22C17.52 22 22 17.52 22 12C22 6.48 17.52 2 12 2ZM12 20C7.59 20 4 16.41 4 12C4 7.59 7.59 4 12 4C16.41 4 20 7.59 20 12C20 16.41 16.41 20 12 20Z" fill="currentColor"/>
  <path d="M15.88 8.29L10.34 13.82L8.12 11.6C7.73 11.2 7.1 11.2 6.71 11.6C6.32 12 6.32 12.63 6.71 13.02L9.63 15.94C10.02 16.33 10.65 16.33 11.04 15.94L17.29 9.7C17.68 9.31 17.68 8.68 17.29 8.29C16.9 7.9 16.27 7.9 15.88 8.29Z" fill="currentColor"/>
</svg> 