<svg width="24" height="24" viewBox="0 0 24 24" fill="none" xmlns="http://www.w3.org/2000/svg">
  <path d="M4.5 9.5C5.33 9.5 6 8.83 6 8C6 7.17 5.33 6.5 4.5 6.5C3.67 6.5 3 7.17 3 8C3 8.83 3.67 9.5 4.5 9.5Z" fill="currentColor"/>
  <path d="M9.5 6C10.33 6 11 5.33 11 4.5C11 3.67 10.33 3 9.5 3C8.67 3 8 3.67 8 4.5C8 5.33 8.67 6 9.5 6Z" fill="currentColor"/>
  <path d="M15 6C15.83 6 16.5 5.33 16.5 4.5C16.5 3.67 15.83 3 15 3C14.17 3 13.5 3.67 13.5 4.5C13.5 5.33 14.17 6 15 6Z" fill="currentColor"/>
  <path d="M19.5 9.5C20.33 9.5 21 8.83 21 8C21 7.17 20.33 6.5 19.5 6.5C18.67 6.5 18 7.17 18 8C18 8.83 18.67 9.5 19.5 9.5Z" fill="currentColor"/>
  <path d="M17.34 14.86C16.47 13.84 15.74 12.97 15.74 11.87C15.74 10.01 14.22 8.5 12.37 8.5C10.51 8.5 9 10.01 9 11.87C9 12.64 8.5 13.37 7.86 14.02C7.39 14.49 6.64 15.23 6.17 15.69C6.06 15.81 6 15.96 6 16.13C6 16.36 6.11 16.59 6.3 16.72C6.86 17.13 8.3 17.5 12 17.5C15.7 17.5 17.14 17.13 17.7 16.72C17.89 16.59 18 16.36 18 16.13C18 15.96 17.94 15.8 17.83 15.68C17.52 15.39 17.63 15.22 17.34 14.86Z" fill="currentColor"/>
  <path d="M12 22C17.52 22 22 17.52 22 12C22 6.48 17.52 2 12 2C6.48 2 2 6.48 2 12C2 17.52 6.48 22 12 22ZM12 4C16.42 4 20 7.58 20 12C20 16.42 16.42 20 12 20C7.58 20 4 16.42 4 12C4 7.58 7.58 4 12 4Z" fill="currentColor"/>
</svg> 